<svg id="图层_1" data-name="图层 1" xmlns="http://www.w3.org/2000/svg" viewBox="0 0 2596.62 1084"><defs><style>.cls-1{fill:#0d74f5;}.cls-2,.cls-3{fill:#fff;}.cls-3{opacity:0.5;}</style></defs><title>OEC</title><rect class="cls-1" x="-4.56" y="-1" width="2621.38" height="1085"/><path class="cls-2" d="M572.22,503.92a119,119,0,0,0,56.66,0,119.23,119.23,0,0,1,87.37-87.36,119.12,119.12,0,1,0-231.39,0A119.22,119.22,0,0,1,572.22,503.92Z"/><path class="cls-2" d="M628.88,560.58a119,119,0,0,0-56.66,0,119.22,119.22,0,0,1-87.36,87.36,119.11,119.11,0,1,0,231.39,0A119.23,119.23,0,0,1,628.88,560.58Z"/><path class="cls-2" d="M744.57,413.14a119.09,119.09,0,0,0-28.32,3.42,119.26,119.26,0,0,1-87.37,87.36,119,119,0,0,0,0,56.66,119.25,119.25,0,0,1,87.37,87.36,119.11,119.11,0,1,0,28.32-234.8Z"/><path class="cls-2" d="M572.22,560.58a119,119,0,0,0,0-56.66,119.25,119.25,0,0,1-87.36-87.36,119.11,119.11,0,1,0,0,231.38A119.24,119.24,0,0,1,572.22,560.58Z"/><path class="cls-3" d="M628.88,503.92a119.26,119.26,0,0,0,87.37-87.36A119.23,119.23,0,0,0,628.88,503.92Z"/><path class="cls-3" d="M628.88,560.58a119.23,119.23,0,0,0,87.37,87.36A119.25,119.25,0,0,0,628.88,560.58Z"/><path class="cls-3" d="M572.22,503.92a119.22,119.22,0,0,0-87.36-87.36A119.25,119.25,0,0,0,572.22,503.92Z"/><path class="cls-3" d="M572.22,560.58a119.24,119.24,0,0,0-87.36,87.36A119.22,119.22,0,0,0,572.22,560.58Z"/><path class="cls-2" d="M953.21,532.25c0-119.38,88.8-210.36,208.7-210.36S1370.62,414,1370.62,532.25c0,119.38-89.37,210.36-209.27,210.36S953.21,652.79,953.21,532.25Zm338.79,0c0-77.65-54.3-136.76-130.09-136.76-76.35,0-130.65,59.11-130.65,136.76,0,78.81,54.3,136.76,130.65,136.76C1237.7,669,1292,611.06,1292,532.25Z"/><path class="cls-2" d="M1435.54,329.43h254.4v66.64H1512.61V496.9h168.61V563H1512.61V668.43h177.33v66.64h-254.4Z"/><path class="cls-2" d="M1756.38,532.25c0-119.38,86-210.36,207-210.36,101.8,0,173.07,64.33,193.43,151.25h-81.45c-14.7-46.94-57.69-77.65-112-77.65-74.66,0-129,58.53-129,136.76,0,79.39,54.3,136.76,129,136.76,53.73,0,97.28-30.13,113.12-76.49h82.57c-19.23,87.5-94.45,150.09-196.26,150.09C1841.79,742.61,1756.38,652.79,1756.38,532.25Z"/></svg>