<svg id="图层_1" data-name="图层 1" xmlns="http://www.w3.org/2000/svg" viewBox="0 0 2316.93 2448.98"><defs><style>.cls-1{fill:#0d74f5;}.cls-2,.cls-3{fill:#fff;}.cls-3{opacity:0.5;}</style></defs><title>OEC</title><rect class="cls-1" y="0.98" width="2316.93" height="2448"/><path class="cls-2" d="M1074.36,907.93a264.06,264.06,0,0,0,125.71,0A264.64,264.64,0,0,1,1394,714.06a264.73,264.73,0,0,0,7.58-62.86c0-146-118.34-264.32-264.32-264.32S872.9,505.22,872.9,651.2a264.73,264.73,0,0,0,7.58,62.86A264.64,264.64,0,0,1,1074.36,907.93Z"/><path class="cls-2" d="M1200.07,1033.65a264.39,264.39,0,0,0-125.71,0,264.64,264.64,0,0,1-193.88,193.87,264.73,264.73,0,0,0-7.58,62.86c0,146,118.34,264.32,264.31,264.32s264.32-118.34,264.32-264.32a264.73,264.73,0,0,0-7.58-62.86A264.64,264.64,0,0,1,1200.07,1033.65Z"/><path class="cls-2" d="M1456.81,706.47a264.66,264.66,0,0,0-62.86,7.59,264.65,264.65,0,0,1-193.88,193.87,264.44,264.44,0,0,0,0,125.72A264.67,264.67,0,0,1,1394,1227.52a264.66,264.66,0,0,0,62.86,7.59c146,0,264.31-118.34,264.31-264.32S1602.78,706.47,1456.81,706.47Z"/><path class="cls-2" d="M1074.36,1033.65a264.44,264.44,0,0,0,0-125.72A264.65,264.65,0,0,1,880.48,714.06a264.66,264.66,0,0,0-62.86-7.59c-146,0-264.31,118.34-264.31,264.32s118.33,264.32,264.31,264.32a264.66,264.66,0,0,0,62.86-7.59A264.67,264.67,0,0,1,1074.36,1033.65Z"/><path class="cls-3" d="M1200.07,907.93A264.65,264.65,0,0,0,1394,714.06,264.64,264.64,0,0,0,1200.07,907.93Z"/><path class="cls-3" d="M1200.07,1033.65A264.64,264.64,0,0,0,1394,1227.52,264.67,264.67,0,0,0,1200.07,1033.65Z"/><path class="cls-3" d="M1074.36,907.93A264.64,264.64,0,0,0,880.48,714.06,264.65,264.65,0,0,0,1074.36,907.93Z"/><path class="cls-3" d="M1074.36,1033.65a264.67,264.67,0,0,0-193.88,193.87A264.64,264.64,0,0,0,1074.36,1033.65Z"/><path class="cls-2" d="M647.21,1878.72c0-95.86,71.31-168.93,167.6-168.93s167.61,74,167.61,168.93c0,95.87-71.77,168.94-168.06,168.94S647.21,1975.52,647.21,1878.72Zm272.07,0c0-62.36-43.6-109.82-104.47-109.82-61.32,0-104.92,47.46-104.92,109.82,0,63.3,43.6,109.83,104.92,109.83C875.68,1988.55,919.28,1942,919.28,1878.72Z"/><path class="cls-2" d="M1041,1715.84h204.3v53.52h-142.4v81h135.4v53.05h-135.4v84.7h142.4v53.52H1041Z"/><path class="cls-2" d="M1303.82,1878.72c0-95.86,69-168.93,166.24-168.93,81.76,0,139,51.66,155.34,121.47H1560c-11.81-37.7-46.33-62.36-89.94-62.36-60,0-103.56,47-103.56,109.82,0,63.76,43.61,109.83,103.56,109.83,43.15,0,78.13-24.2,90.85-61.43h66.31c-15.44,70.28-75.85,120.54-157.61,120.54C1372.41,2047.66,1303.82,1975.52,1303.82,1878.72Z"/></svg>