<svg id="图层_1" data-name="图层 1" xmlns="http://www.w3.org/2000/svg" viewBox="0 0 3015.88 1735.89"><defs><style>.cls-1{fill:#7abdf7;}.cls-2{fill:#0d74f5;}.cls-3{fill:#4494f7;}.cls-4{fill:#005cf4;}.cls-5{fill:#186ef9;}.cls-6{fill:#0246f2;}.cls-7{fill:#0046f8;}.cls-8{fill:#0729f1;}.cls-9{fill:#1a1a1a;}.cls-10,.cls-14{font-size:28.94px;}.cls-10,.cls-14,.cls-18,.cls-23{fill:#333;}.cls-10,.cls-18{font-family:Seravek-Light, Seravek;font-weight:300;}.cls-11{letter-spacing:0em;}.cls-12{letter-spacing:0em;}.cls-13{letter-spacing:-0.01em;}.cls-14,.cls-23{font-family:Seravek-Medium, Seravek;font-weight:500;}.cls-15{letter-spacing:-0.05em;}.cls-16{letter-spacing:-0.02em;}.cls-17{letter-spacing:0.01em;}.cls-18,.cls-23,.cls-56{font-size:32.57px;}.cls-19{letter-spacing:0em;}.cls-20{letter-spacing:0em;}.cls-21{letter-spacing:0em;}.cls-22{letter-spacing:-0.01em;}.cls-24{letter-spacing:-0.05em;}.cls-25{letter-spacing:0em;}.cls-26{letter-spacing:-0.02em;}.cls-27{letter-spacing:0.01em;}.cls-28{letter-spacing:0em;}.cls-29{letter-spacing:0.01em;}.cls-30{letter-spacing:-0.01em;}.cls-31{letter-spacing:0em;}.cls-32{letter-spacing:0.01em;}.cls-33{letter-spacing:0.01em;}.cls-34{letter-spacing:0em;}.cls-35{letter-spacing:-0.02em;}.cls-36{letter-spacing:-0.01em;}.cls-37{letter-spacing:-0.03em;}.cls-38{letter-spacing:-0.02em;}.cls-39{letter-spacing:-0.01em;}.cls-40{letter-spacing:-0.05em;}.cls-41{letter-spacing:-0.01em;}.cls-42{letter-spacing:0em;}.cls-43{letter-spacing:0.01em;}.cls-44{letter-spacing:0.02em;}.cls-45{letter-spacing:-0.03em;}.cls-46{letter-spacing:-0.01em;}.cls-47{fill:#79bdf7;}.cls-48{fill:#0274f5;}.cls-49{fill:#4194f7;}.cls-50{fill:#0229f1;}.cls-51{fill:#116ef9;}.cls-52{fill:#0047f2;}.cls-53,.cls-55{fill:none;stroke-miterlimit:10;}.cls-53{stroke:#005cf4;}.cls-54,.cls-56{fill:#fff;}.cls-55{stroke:#333;}.cls-56{font-family:Seravek;}.cls-57{letter-spacing:0em;}.cls-58{letter-spacing:0em;}.cls-59{letter-spacing:0em;}</style></defs><title>OEC</title><path class="cls-1" d="M695,784.2a114.25,114.25,0,0,0,54.36,0,114.4,114.4,0,0,1,83.82-83.82,114.28,114.28,0,1,0-222,0A114.4,114.4,0,0,1,695,784.2Z"/><path class="cls-2" d="M749.35,838.55a114.25,114.25,0,0,0-54.36,0,114.4,114.4,0,0,1-83.82,83.82,114.27,114.27,0,1,0,222,0A114.4,114.4,0,0,1,749.35,838.55Z"/><path class="cls-3" d="M860.34,697.1a114.2,114.2,0,0,0-27.17,3.28,114.44,114.44,0,0,1-83.82,83.82,114.21,114.21,0,0,0,0,54.35,114.44,114.44,0,0,1,83.82,83.82A114.27,114.27,0,1,0,860.34,697.1Z"/><path class="cls-4" d="M695,838.55a114.21,114.21,0,0,0,0-54.35,114.44,114.44,0,0,1-83.82-83.82,114.28,114.28,0,1,0,0,222A114.44,114.44,0,0,1,695,838.55Z"/><path class="cls-5" d="M749.35,784.2a114.44,114.44,0,0,0,83.82-83.82A114.4,114.4,0,0,0,749.35,784.2Z"/><path class="cls-6" d="M749.35,838.55a114.4,114.4,0,0,0,83.82,83.82A114.44,114.44,0,0,0,749.35,838.55Z"/><path class="cls-7" d="M695,784.2a114.4,114.4,0,0,0-83.82-83.82A114.44,114.44,0,0,0,695,784.2Z"/><path class="cls-8" d="M695,838.55a114.44,114.44,0,0,0-83.82,83.82A114.4,114.4,0,0,0,695,838.55Z"/><path class="cls-9" d="M1060.51,811.37c0-114.52,85.19-201.81,200.23-201.81S1461,698,1461,811.37c0,114.53-85.73,201.82-200.77,201.82S1060.51,927,1060.51,811.37Zm325,0c0-74.49-52.09-131.2-124.8-131.2-73.26,0-125.35,56.71-125.35,131.2,0,75.62,52.09,131.21,125.35,131.21C1333.45,942.58,1385.54,887,1385.54,811.37Z"/><path class="cls-9" d="M1523.25,616.79h244.07v63.93H1597.2v96.74H1759v63.38H1597.2V942h170.12V1006H1523.25Z"/><path class="cls-9" d="M1831.07,811.37c0-114.52,82.47-201.81,198.6-201.81,97.67,0,166,61.71,185.57,145.11h-78.13c-14.11-45-55.35-74.5-107.44-74.5-71.63,0-123.72,56.15-123.72,131.2,0,76.17,52.09,131.21,123.72,131.21,51.55,0,93.33-28.91,108.52-73.38h79.23c-18.45,83.95-90.62,144-188.3,144C1913,1013.19,1831.07,927,1831.07,811.37Z"/><text class="cls-10" transform="translate(771.23 1501.37)"><tspan xml:space="preserve">R32  G95  B</tspan><tspan class="cls-11" x="133.52" y="0">2</tspan><tspan x="147.01" y="0">36</tspan></text><text class="cls-10" transform="translate(771.23 1544.18)"><tspan xml:space="preserve">C86  M62</tspan></text><text class="cls-10" transform="translate(771.23 1458.56)">#<tspan class="cls-12" x="19.36" y="0">2</tspan><tspan x="32.65" y="0">05</tspan><tspan class="cls-13" x="63.97" y="0">f</tspan><tspan x="73.58" y="0">ec</tspan></text><text class="cls-14" transform="translate(771.23 1404)"><tspan class="cls-15">P</tspan><tspan x="14.47" y="0">AN</tspan><tspan class="cls-16" x="55.43" y="0">T</tspan><tspan x="70.71" y="0" xml:space="preserve">ONE  </tspan><tspan class="cls-17" x="140.76" y="0">2</tspan><tspan x="155.43" y="0" xml:space="preserve">728  C</tspan></text><text class="cls-18" transform="translate(2346.16 460.28)"><tspan xml:space="preserve">R32  G95  B</tspan><tspan class="cls-19" x="150.23" y="0">2</tspan><tspan x="165.41" y="0">36</tspan></text><text class="cls-18" transform="translate(2346.16 508.45)"><tspan xml:space="preserve">C86  M62</tspan></text><text class="cls-18" transform="translate(2346.16 412.11)">#<tspan class="cls-20" x="21.79" y="0">2</tspan><tspan class="cls-21" x="36.74" y="0">05</tspan><tspan class="cls-22" x="71.97" y="0">f</tspan><tspan class="cls-21" x="82.79" y="0">ec</tspan></text><text class="cls-23" transform="translate(2346.16 350.72)"><tspan class="cls-24">P</tspan><tspan class="cls-25" x="16.28" y="0">AN</tspan><tspan class="cls-26" x="62.37" y="0">T</tspan><tspan x="79.56" y="0" xml:space="preserve">ONE  </tspan><tspan class="cls-27" x="158.38" y="0">2</tspan><tspan x="174.89" y="0" xml:space="preserve">728  C</tspan></text><text class="cls-14" transform="translate(1152.95 1404)"><tspan class="cls-15">P</tspan><tspan class="cls-28" x="14.47" y="0">AN</tspan><tspan class="cls-16" x="55.43" y="0">T</tspan><tspan x="70.71" y="0" xml:space="preserve">ONE  </tspan><tspan class="cls-17" x="140.76" y="0">2</tspan><tspan x="155.43" y="0">7</tspan><tspan class="cls-17" x="168.89" y="0">2</tspan><tspan x="183.57" y="0" xml:space="preserve">7  C</tspan></text><text class="cls-14" transform="translate(1550.66 1404)"><tspan class="cls-15">P</tspan><tspan x="14.47" y="0">AN</tspan><tspan class="cls-16" x="55.43" y="0">T</tspan><tspan x="70.71" y="0" xml:space="preserve">ONE  </tspan><tspan class="cls-17" x="140.76" y="0">2</tspan><tspan class="cls-29" x="155.43" y="0">7</tspan><tspan class="cls-28" x="169.33" y="0" xml:space="preserve">18  C</tspan></text><text class="cls-14" transform="translate(385.14 1404)"><tspan class="cls-15">P</tspan><tspan class="cls-28" x="14.47" y="0">AN</tspan><tspan class="cls-16" x="55.43" y="0">T</tspan><tspan x="70.71" y="0" xml:space="preserve">ONE  </tspan><tspan class="cls-17" x="140.76" y="0">2</tspan><tspan class="cls-30" x="155.43" y="0">7</tspan><tspan class="cls-31" x="168.6" y="0" xml:space="preserve">8  C</tspan></text><text class="cls-10" transform="translate(1156.12 1501.37)"><tspan xml:space="preserve">R48  G1</tspan><tspan class="cls-32" x="88.45" y="0">1</tspan><tspan x="98.44" y="0" xml:space="preserve">7  B</tspan><tspan class="cls-33" x="139.69" y="0">2</tspan><tspan class="cls-31" x="153.17" y="0">38</tspan></text><text class="cls-10" transform="translate(1156.12 1544.18)"><tspan xml:space="preserve">C82  M54</tspan></text><text class="cls-10" transform="translate(1156.12 1458.56)">#3075ee</text><text class="cls-10" transform="translate(1552.23 1501.37)"><tspan xml:space="preserve">R87  G1</tspan><tspan class="cls-34" x="86.11" y="0">4</tspan><tspan class="cls-28" x="101.22" y="0" xml:space="preserve">9  B</tspan><tspan class="cls-35" x="145.1" y="0">2</tspan><tspan class="cls-36" x="157.86" y="0">4</tspan><tspan x="172.63" y="0">1</tspan></text><text class="cls-10" transform="translate(1552.23 1544.18)">C<tspan class="cls-37" x="17.37" y="0">7</tspan><tspan class="cls-31" x="29.44" y="0" xml:space="preserve">0  M37</tspan></text><text class="cls-10" transform="translate(1552.23 1458.56)">#5<tspan class="cls-34" x="33.78" y="0">7</tspan><tspan class="cls-31" x="46.54" y="0">95f1</tspan></text><text class="cls-10" transform="translate(385.14 1501.37)"><tspan xml:space="preserve">R136  G189  B</tspan><tspan class="cls-38" x="156.1" y="0">2</tspan><tspan x="168.86" y="0">43</tspan></text><text class="cls-10" transform="translate(385.14 1544.18)"><tspan xml:space="preserve">C53  M16</tspan></text><text class="cls-10" transform="translate(385.14 1458.56)">#88bdf3</text><text class="cls-14" transform="translate(393.58 367.53)"><tspan class="cls-15">P</tspan><tspan class="cls-28" x="14.47" y="0">AN</tspan><tspan class="cls-16" x="55.43" y="0">T</tspan><tspan x="70.71" y="0" xml:space="preserve">ONE  B</tspan><tspan class="cls-12" x="157.6" y="0">l</tspan><tspan x="166.14" y="0">ue </tspan><tspan class="cls-34" x="203.45" y="0">0</tspan><tspan class="cls-28" x="221.14" y="0" xml:space="preserve">72  C</tspan></text><text class="cls-10" transform="translate(393.58 272.14)"><tspan xml:space="preserve">R9  G50  B</tspan><tspan class="cls-11" x="123.3" y="0">2</tspan><tspan x="136.79" y="0">32</tspan></text><text class="cls-10" transform="translate(393.58 314.95)">C<tspan class="cls-39" x="17.37" y="0">9</tspan><tspan x="32.65" y="0" xml:space="preserve">1  M</tspan><tspan class="cls-40" x="79.05" y="0">7</tspan><tspan x="90.6" y="0">4</tspan></text><text class="cls-10" transform="translate(393.58 229.33)">#0<tspan class="cls-41" x="36.27" y="0">9</tspan><tspan class="cls-31" x="51.38" y="0">32e8</tspan></text><text class="cls-14" transform="translate(765.2 367.53)"><tspan class="cls-15">P</tspan><tspan x="14.47" y="0">AN</tspan><tspan class="cls-16" x="55.43" y="0">T</tspan><tspan x="70.71" y="0" xml:space="preserve">ONE  </tspan><tspan class="cls-17" x="140.76" y="0">2</tspan><tspan x="155.43" y="0" xml:space="preserve">726  C</tspan></text><text class="cls-10" transform="translate(765.2 272.14)">R<tspan class="cls-42" x="16.15" y="0">4</tspan><tspan x="31.26" y="0" xml:space="preserve">9  G112  B</tspan><tspan class="cls-35" x="139.83" y="0">2</tspan><tspan class="cls-36" x="152.6" y="0">4</tspan><tspan class="cls-31" x="167.36" y="0">1</tspan></text><text class="cls-10" transform="translate(765.2 314.95)"><tspan xml:space="preserve">C82  M56</tspan></text><text class="cls-10" transform="translate(765.2 229.33)">#3<tspan class="cls-43" x="33.14" y="0">1</tspan><tspan class="cls-37" x="43.13" y="0">7</tspan><tspan x="55.2" y="0">0f1</tspan></text><text class="cls-14" transform="translate(1156.12 367.53)"><tspan class="cls-15">P</tspan><tspan class="cls-28" x="14.47" y="0">AN</tspan><tspan class="cls-16" x="55.43" y="0">T</tspan><tspan x="70.71" y="0" xml:space="preserve">ONE  </tspan><tspan class="cls-17" x="140.76" y="0">2</tspan><tspan x="155.43" y="0" xml:space="preserve">736  C</tspan></text><text class="cls-10" transform="translate(1156.12 272.14)"><tspan xml:space="preserve">R22  G75  B</tspan><tspan class="cls-33" x="130.45" y="0">2</tspan><tspan class="cls-31" x="143.94" y="0">34</tspan></text><text class="cls-10" transform="translate(1156.12 314.95)"><tspan xml:space="preserve">C88  M68</tspan></text><text class="cls-10" transform="translate(1156.12 229.33)"><tspan class="cls-44">#</tspan><tspan x="19.94" y="0">164bea</tspan></text><text class="cls-10" transform="translate(1552.23 272.14)"><tspan xml:space="preserve">R22  G75  B</tspan><tspan class="cls-33" x="130.45" y="0">2</tspan><tspan class="cls-31" x="143.94" y="0">34</tspan></text><text class="cls-10" transform="translate(1552.23 314.95)"><tspan xml:space="preserve">C88  M68</tspan></text><text class="cls-10" transform="translate(1552.23 229.33)"><tspan class="cls-44">#</tspan><tspan x="19.94" y="0">134BEF</tspan></text><text class="cls-14" transform="translate(1550.66 367.53)"><tspan class="cls-15">P</tspan><tspan x="14.47" y="0">AN</tspan><tspan class="cls-16" x="55.43" y="0">T</tspan><tspan x="70.71" y="0" xml:space="preserve">ONE  </tspan><tspan class="cls-17" x="140.76" y="0">2</tspan><tspan x="155.43" y="0" xml:space="preserve">736  C</tspan></text><text class="cls-10" transform="translate(2337.69 799.79)"><tspan xml:space="preserve">R26  G26  B26</tspan></text><text class="cls-10" transform="translate(2337.69 842.6)">C<tspan class="cls-42" x="17.37" y="0">7</tspan><tspan x="30.13" y="0" xml:space="preserve">9  M</tspan><tspan class="cls-40" x="82.32" y="0">7</tspan><tspan class="cls-28" x="93.87" y="0">4 </tspan><tspan class="cls-45" x="115.29" y="0"> </tspan><tspan class="cls-28" x="120.78" y="0">Y</tspan><tspan class="cls-29" x="135.84" y="0">7</tspan><tspan x="149.12" y="0" xml:space="preserve">1  K45</tspan></text><text class="cls-10" transform="translate(2337.69 754.14)"><tspan class="cls-44">#</tspan><tspan x="19.94" y="0">1a1a1a</tspan></text><text class="cls-14" transform="translate(2336.12 895.18)"><tspan class="cls-15">P</tspan><tspan x="14.47" y="0">AN</tspan><tspan class="cls-16" x="55.43" y="0">T</tspan><tspan x="70.71" y="0" xml:space="preserve">ONE  Neut</tspan><tspan class="cls-46" x="204.26" y="0">r</tspan><tspan x="214.94" y="0" xml:space="preserve">al Black  C</tspan></text><rect class="cls-47" x="385.14" y="1298.79" width="50.65" height="50.65"/><rect class="cls-4" x="773.65" y="1298.79" width="50.65" height="50.65"/><rect class="cls-4" x="2347.83" y="197.13" width="255.52" height="96.46"/><rect class="cls-48" x="1156.12" y="1298.79" width="50.65" height="50.65"/><rect class="cls-49" x="1550.66" y="1298.79" width="50.65" height="50.65"/><rect class="cls-50" x="391.17" y="402.6" width="50.65" height="50.65"/><rect class="cls-51" x="765.2" y="402.6" width="50.65" height="50.65"/><rect class="cls-52" x="1156.12" y="402.6" width="50.65" height="50.65"/><rect class="cls-7" x="1550.66" y="402.6" width="50.65" height="50.65"/><rect class="cls-9" x="2336.9" y="922.34" width="50.65" height="50.65"/><polyline class="cls-53" points="408.97 1281.75 408.97 650.56 607.89 650.56"/><polyline class="cls-53" points="556.75 922.37 556.75 1201.09 798.97 1201.09 798.97 1274.14"/><polyline class="cls-53" points="798.97 1025.16 1179.36 1025.16 1179.36 1274.14"/><polyline class="cls-53" points="887.59 922.37 887.59 989.95 1575.99 989.95 1575.99 1274.14"/><circle class="cls-54" cx="653.08" cy="742.29" r="5.72"/><circle class="cls-54" cx="653.08" cy="880.46" r="5.72"/><circle class="cls-54" cx="791.26" cy="742.29" r="5.72"/><circle class="cls-54" cx="791.26" cy="880.46" r="5.72"/><polyline class="cls-55" points="653.08 742.29 653.08 527.55 1575.99 527.55 1575.99 477.29"/><polyline class="cls-55" points="791.25 880.46 1005.69 880.46 1005.69 427.93 1133.53 427.93"/><line class="cls-55" x1="791.26" y1="742.29" x2="791.26" y2="477.29"/><polyline class="cls-55" points="653.08 880.46 318.25 880.46 318.25 427.93 371.31 427.93"/><text class="cls-56" transform="translate(2383.09 255.44)">Prima<tspan class="cls-57" x="80.47" y="0">r</tspan><tspan class="cls-21" x="92.39" y="0">y </tspan><tspan class="cls-58" x="114.38" y="0">c</tspan><tspan x="128.84" y="0">o</tspan><tspan class="cls-59" x="146.62" y="0">l</tspan><tspan x="155.44" y="0">or</tspan></text></svg>